<?xml version="1.0" standalone="no"?><!DOCTYPE svg PUBLIC "-//W3C//DTD SVG 1.1//EN" "http://www.w3.org/Graphics/SVG/1.1/DTD/svg11.dtd"><svg t="1669603446153" class="icon" viewBox="0 0 1024 1024" version="1.1" xmlns="http://www.w3.org/2000/svg" p-id="1386" xmlns:xlink="http://www.w3.org/1999/xlink" width="200" height="200"><path d="M512 85.333333C277.333333 85.333333 85.333333 277.333333 85.333333 512s192 426.666667 426.666667 426.666667 426.666667-192 426.666667-426.666667S750.933333 85.333333 512 85.333333z m302.933333 277.333334L494.933333 682.666667c-4.266667 4.266667-12.8 8.533333-21.333333 8.533333s-17.066667-4.266667-21.333333-8.533333l-166.4-166.4c-12.8-12.8-12.8-34.133333 0-46.933334 12.8-12.8 34.133333-12.8 46.933333 0l145.066667 145.066667 298.666666-294.4c12.8-12.8 34.133333-12.8 46.933334 0 4.266667 12.8 4.266667 29.866667-8.533334 42.666667z" p-id="1387" fill="#2aa515"></path></svg>